<?xml version="1.0" standalone="no"?>
<!DOCTYPE svg PUBLIC "-//W3C//DTD SVG 20010904//EN"
 "http://www.w3.org/TR/2001/REC-SVG-20010904/DTD/svg10.dtd">
<svg version="1.0" xmlns="http://www.w3.org/2000/svg"
 width="1024.000000pt" height="1024.000000pt" viewBox="0 0 1024.000000 1024.000000"
 preserveAspectRatio="xMidYMid meet">

<g transform="translate(0.000000,1024.000000) scale(0.100000,-0.100000)"
fill="#000000" stroke="none">
<path d="M1950 5450 l0 -260 225 0 225 0 0 -55 0 -55 -225 0 -225 0 2 -277 3
-278 123 -3 122 -3 0 236 0 235 355 0 355 0 0 -235 0 -235 25 0 25 0 0 180 0
180 60 0 60 0 2 -177 3 -178 35 0 35 0 3 593 2 592 -125 0 -125 0 0 -230 0
-230 -355 0 -355 0 0 230 0 230 -125 0 -125 0 0 -260z"/>
<path d="M3260 5585 l0 -125 416 0 416 0 -117 125 -117 125 -299 0 -299 0 0
-125z"/>
<path d="M4165 5568 c76 -79 154 -159 172 -178 l33 -35 0 178 0 177 -172 0
-172 0 139 -142z"/>
<path d="M4410 5661 c0 -32 5 -53 16 -61 8 -8 56 -63 107 -124 50 -61 94 -113
97 -116 30 -28 190 -231 190 -241 0 -8 -14 -30 -31 -49 -17 -19 -42 -51 -57
-70 -15 -19 -39 -48 -54 -65 -14 -16 -81 -95 -147 -175 -117 -140 -121 -146
-121 -192 l0 -48 123 0 c67 0 127 4 132 8 6 4 44 48 85 97 41 50 80 95 85 101
6 6 43 50 84 98 40 47 76 86 80 86 4 0 13 -8 21 -18 8 -10 37 -43 63 -75 l49
-57 164 0 c90 0 164 3 164 6 0 4 -17 25 -37 48 -75 82 -253 298 -253 306 0 7
59 78 203 248 l79 92 -169 0 -168 0 -53 -65 c-29 -36 -57 -65 -61 -65 -10 0
-38 31 -199 223 l-133 157 -130 0 -129 0 0 -49z"/>
<path d="M5320 5703 c-1 -5 -23 -33 -50 -63 l-50 -55 166 -3 c161 -2 166 -2
184 20 12 15 19 39 20 66 l0 42 -135 0 c-74 0 -135 -3 -135 -7z"/>
<path d="M5750 5667 c0 -23 7 -53 16 -65 15 -21 21 -22 185 -22 l171 0 -57 65
-57 65 -129 0 -129 0 0 -43z"/>
<path d="M6585 5613 c-145 -173 -190 -226 -220 -259 l-30 -33 -55 69 -55 69
-168 0 -168 1 46 -57 c25 -32 86 -105 135 -163 49 -58 90 -112 90 -120 0 -14
-43 -69 -207 -261 -40 -47 -73 -89 -73 -93 0 -3 72 -6 159 -6 l159 0 30 33
c16 17 47 51 67 75 21 23 41 41 45 40 4 -2 25 -24 46 -49 21 -25 60 -70 85
-100 26 -30 79 -92 118 -139 40 -47 78 -88 86 -93 8 -4 67 -6 132 -5 l118 3 3
45 c2 41 -2 50 -45 101 -27 31 -91 107 -145 170 -53 63 -108 128 -122 144 -15
17 -45 54 -68 83 l-41 53 34 42 c18 23 81 98 140 167 257 303 249 291 249 338
l0 42 -132 0 -133 -1 -80 -96z"/>
<path d="M7284 5700 c-45 -10 -101 -47 -128 -83 -51 -71 -51 -67 -51 -597 l0
-495 122 -3 123 -3 2 193 3 193 340 0 340 0 3 -192 c2 -161 5 -193 17 -193 12
0 15 25 17 133 l3 132 33 3 32 3 0 -136 0 -136 73 3 72 3 3 493 2 492 -187 0
c-231 0 -323 8 -323 26 0 11 46 14 250 14 l249 0 -20 35 c-33 55 -95 102 -151
114 -56 12 -774 13 -824 1z m751 -390 l0 -145 -334 -3 c-261 -2 -336 1 -343
10 -9 15 -11 249 -2 272 6 15 42 16 343 14 l336 -3 0 -145z"/>
<path d="M4110 5348 l0 -98 -340 0 -340 0 0 -125 0 -125 340 0 340 0 0 -105 0
-105 -425 0 -425 0 0 -130 0 -130 553 2 552 3 2 320 2 320 -129 135 -129 135
-1 -97z"/>
<path d="M5249 4623 c11 -16 36 -45 55 -65 l35 -38 125 0 126 0 0 48 c0 79 -8
82 -199 82 l-162 0 20 -27z"/>
<path d="M5762 4630 c-6 -11 -12 -40 -12 -65 l0 -45 123 0 c135 1 130 -1 195
78 l44 52 -169 0 c-157 0 -169 -1 -181 -20z"/>
</g>
</svg>
